<svg width="185" height="42" viewBox="0 0 185 42" fill="none" xmlns="http://www.w3.org/2000/svg">
<path opacity="0.5" d="M40.0652 2.25671L30.2601 36.9917C30.2102 37.1494 30.0108 37.1967 29.8945 37.0863L23.3301 30.8583L28.2492 13.4514C28.2991 13.2937 28.1495 13.1518 27.9833 13.1991L9.63617 17.8662L3.10498 11.6697C2.98865 11.5593 3.03851 11.3701 3.20469 11.3228L39.7993 2.00444C39.9655 1.97291 40.115 2.11481 40.0652 2.25671Z" fill="#00B37E"/>
<path opacity="0.5" d="M23.3297 30.858L20.8037 39.8452C20.7538 40.0029 20.5544 40.0502 20.4381 39.9398L0.0634003 20.6251C-0.0529313 20.5147 -0.00307518 20.3255 0.163113 20.2782L9.63583 17.8658L23.3297 30.858Z" fill="#00B37E"/>
<path d="M28.2484 13.4511L23.3292 30.858L9.63533 17.8659L27.9825 13.1988C28.1487 13.1515 28.2982 13.2934 28.2484 13.4511Z" fill="#00B37E"/>
<path d="M61.675 11.3104V29.5H57.9397V11.3104H61.675ZM73.5182 15.9828H76.7789V29.0503C76.7789 30.2829 76.504 31.3281 75.9543 32.186C75.413 33.0521 74.6551 33.7059 73.6806 34.1473C72.7062 34.5971 71.5735 34.8219 70.2826 34.8219C69.7163 34.8219 69.1166 34.747 68.4836 34.5971C67.859 34.4472 67.2593 34.214 66.6847 33.8975C66.1183 33.581 65.6436 33.1812 65.2605 32.6982L66.8471 30.5744C67.2635 31.0574 67.7466 31.4322 68.2962 31.6987C68.8459 31.9736 69.4539 32.111 70.1202 32.111C70.7698 32.111 71.3195 31.9902 71.7692 31.7487C72.219 31.5155 72.5646 31.1699 72.8061 30.7118C73.0477 30.2621 73.1684 29.7165 73.1684 29.0752V19.106L73.5182 15.9828ZM64.4235 22.9038V22.6414C64.4235 21.6087 64.5484 20.6717 64.7982 19.8305C65.0564 18.981 65.4187 18.2523 65.8851 17.6443C66.3598 17.0363 66.9345 16.5658 67.6091 16.2326C68.2837 15.8995 69.0458 15.7329 69.8953 15.7329C70.7948 15.7329 71.5485 15.8995 72.1565 16.2326C72.7645 16.5658 73.2642 17.0405 73.6557 17.6568C74.0471 18.2648 74.3511 18.9852 74.5676 19.8181C74.7925 20.6426 74.9674 21.5462 75.0923 22.529V23.1037C74.9674 24.0448 74.78 24.9193 74.5302 25.7272C74.2803 26.535 73.9513 27.243 73.5432 27.8509C73.1351 28.4506 72.6271 28.917 72.0191 29.2501C71.4194 29.5833 70.7032 29.7499 69.8703 29.7499C69.0375 29.7499 68.2837 29.5791 67.6091 29.2377C66.9428 28.8962 66.3723 28.4173 65.8976 27.801C65.4229 27.1847 65.0564 26.4601 64.7982 25.6272C64.5484 24.7944 64.4235 23.8866 64.4235 22.9038ZM68.0214 22.6414V22.9038C68.0214 23.4618 68.0755 23.9823 68.1838 24.4654C68.2921 24.9484 68.4586 25.3774 68.6835 25.7521C68.9167 26.1186 69.204 26.4059 69.5455 26.6142C69.8953 26.814 70.3076 26.914 70.7823 26.914C71.4403 26.914 71.9775 26.7766 72.3939 26.5017C72.8103 26.2185 73.1226 25.8313 73.3308 25.3399C73.5391 24.8485 73.6598 24.2822 73.6931 23.6409V22.0043C73.6765 21.4796 73.6057 21.009 73.4808 20.5926C73.3558 20.1679 73.1809 19.8056 72.9561 19.5057C72.7312 19.2059 72.4397 18.9727 72.0816 18.8061C71.7234 18.6396 71.2987 18.5563 70.8073 18.5563C70.3326 18.5563 69.9203 18.6645 69.5705 18.8811C69.229 19.0893 68.9417 19.3766 68.7085 19.7431C68.4836 20.1096 68.3129 20.5426 68.1963 21.0424C68.0797 21.5337 68.0214 22.0668 68.0214 22.6414ZM83.1002 18.8686V29.5H79.5023V15.9828H82.8754L83.1002 18.8686ZM82.5755 22.2666H81.6011C81.6011 21.2672 81.7302 20.3677 81.9884 19.5682C82.2466 18.7603 82.6089 18.0732 83.0753 17.5069C83.5417 16.9322 84.0955 16.495 84.7368 16.1951C85.3864 15.887 86.111 15.7329 86.9106 15.7329C87.5435 15.7329 88.1224 15.8245 88.6471 16.0077C89.1718 16.191 89.6215 16.4825 89.9963 16.8822C90.3794 17.282 90.6709 17.8109 90.8708 18.4688C91.079 19.1268 91.1831 19.9305 91.1831 20.8799V29.5H87.5602V20.8675C87.5602 20.2678 87.4769 19.8014 87.3103 19.4683C87.1438 19.1351 86.8981 18.9019 86.5733 18.7687C86.2568 18.6271 85.8653 18.5563 85.3989 18.5563C84.9159 18.5563 84.4953 18.6521 84.1371 18.8436C83.7873 19.0352 83.4958 19.3017 83.2626 19.6432C83.0378 19.9763 82.867 20.3677 82.7504 20.8175C82.6338 21.2672 82.5755 21.7503 82.5755 22.2666ZM97.7169 15.9828V29.5H94.1064V15.9828H97.7169ZM93.8816 12.4598C93.8816 11.9351 94.0648 11.502 94.4312 11.1605C94.7977 10.819 95.2891 10.6483 95.9054 10.6483C96.5134 10.6483 97.0006 10.819 97.3671 11.1605C97.7418 11.502 97.9292 11.9351 97.9292 12.4598C97.9292 12.9845 97.7418 13.4176 97.3671 13.759C97.0006 14.1005 96.5134 14.2712 95.9054 14.2712C95.2891 14.2712 94.7977 14.1005 94.4312 13.759C94.0648 13.4176 93.8816 12.9845 93.8816 12.4598ZM108.998 11.3104H112.171L116.843 24.6653L121.516 11.3104H124.689L118.118 29.5H115.569L108.998 11.3104ZM107.286 11.3104H110.447L111.022 24.328V29.5H107.286V11.3104ZM123.24 11.3104H126.413V29.5H122.665V24.328L123.24 11.3104ZM128.899 22.8788V22.6164C128.899 21.6253 129.041 20.7134 129.324 19.8805C129.607 19.0393 130.019 18.3106 130.561 17.6943C131.102 17.078 131.768 16.5991 132.559 16.2576C133.351 15.9078 134.258 15.7329 135.283 15.7329C136.307 15.7329 137.219 15.9078 138.019 16.2576C138.818 16.5991 139.489 17.078 140.03 17.6943C140.58 18.3106 140.996 19.0393 141.279 19.8805C141.563 20.7134 141.704 21.6253 141.704 22.6164V22.8788C141.704 23.8616 141.563 24.7735 141.279 25.6147C140.996 26.4476 140.58 27.1763 140.03 27.801C139.489 28.4173 138.822 28.8962 138.031 29.2377C137.24 29.5791 136.332 29.7499 135.308 29.7499C134.283 29.7499 133.371 29.5791 132.572 29.2377C131.781 28.8962 131.11 28.4173 130.561 27.801C130.019 27.1763 129.607 26.4476 129.324 25.6147C129.041 24.7735 128.899 23.8616 128.899 22.8788ZM132.497 22.6164V22.8788C132.497 23.4451 132.547 23.974 132.647 24.4654C132.747 24.9568 132.905 25.3899 133.122 25.7646C133.346 26.1311 133.638 26.4184 133.996 26.6266C134.354 26.8349 134.791 26.939 135.308 26.939C135.808 26.939 136.236 26.8349 136.595 26.6266C136.953 26.4184 137.24 26.1311 137.457 25.7646C137.673 25.3899 137.831 24.9568 137.931 24.4654C138.04 23.974 138.094 23.4451 138.094 22.8788V22.6164C138.094 22.0668 138.04 21.5504 137.931 21.0673C137.831 20.576 137.669 20.1429 137.444 19.7681C137.228 19.385 136.94 19.0851 136.582 18.8686C136.224 18.6521 135.791 18.5438 135.283 18.5438C134.775 18.5438 134.342 18.6521 133.984 18.8686C133.634 19.0851 133.346 19.385 133.122 19.7681C132.905 20.1429 132.747 20.576 132.647 21.0673C132.547 21.5504 132.497 22.0668 132.497 22.6164ZM147.438 18.8686V29.5H143.84V15.9828H147.213L147.438 18.8686ZM146.914 22.2666H145.939C145.939 21.2672 146.068 20.3677 146.326 19.5682C146.585 18.7603 146.947 18.0732 147.413 17.5069C147.88 16.9322 148.434 16.495 149.075 16.1951C149.725 15.887 150.449 15.7329 151.249 15.7329C151.882 15.7329 152.46 15.8245 152.985 16.0077C153.51 16.191 153.96 16.4825 154.334 16.8822C154.718 17.282 155.009 17.8109 155.209 18.4688C155.417 19.1268 155.521 19.9305 155.521 20.8799V29.5H151.898V20.8675C151.898 20.2678 151.815 19.8014 151.648 19.4683C151.482 19.1351 151.236 18.9019 150.911 18.7687C150.595 18.6271 150.203 18.5563 149.737 18.5563C149.254 18.5563 148.833 18.6521 148.475 18.8436C148.125 19.0352 147.834 19.3017 147.601 19.6432C147.376 19.9763 147.205 20.3677 147.089 20.8175C146.972 21.2672 146.914 21.7503 146.914 22.2666ZM164.479 29.7499C163.429 29.7499 162.488 29.5833 161.655 29.2501C160.822 28.9087 160.114 28.4381 159.531 27.8385C158.957 27.2388 158.515 26.5434 158.207 25.7521C157.899 24.9526 157.745 24.1031 157.745 23.2036V22.7039C157.745 21.6795 157.891 20.7425 158.182 19.893C158.474 19.0435 158.89 18.3064 159.431 17.6818C159.981 17.0571 160.647 16.5782 161.43 16.2451C162.213 15.9036 163.096 15.7329 164.079 15.7329C165.037 15.7329 165.886 15.8911 166.627 16.2076C167.369 16.5241 167.989 16.9739 168.489 17.5569C168.997 18.1398 169.38 18.8394 169.638 19.6556C169.896 20.4635 170.025 21.363 170.025 22.3541V23.8532H159.282V21.4546H166.49V21.1798C166.49 20.6801 166.398 20.2345 166.215 19.843C166.04 19.4433 165.774 19.1268 165.416 18.8936C165.057 18.6604 164.599 18.5438 164.041 18.5438C163.567 18.5438 163.158 18.6479 162.817 18.8561C162.476 19.0643 162.197 19.3558 161.98 19.7306C161.772 20.1054 161.614 20.5468 161.505 21.0548C161.405 21.5546 161.355 22.1042 161.355 22.7039V23.2036C161.355 23.745 161.43 24.2447 161.58 24.7028C161.738 25.1608 161.959 25.5564 162.242 25.8896C162.534 26.2227 162.884 26.4809 163.292 26.6641C163.708 26.8474 164.179 26.939 164.703 26.939C165.353 26.939 165.957 26.814 166.515 26.5642C167.081 26.306 167.568 25.9187 167.977 25.4024L169.726 27.3013C169.442 27.7094 169.055 28.1008 168.564 28.4756C168.081 28.8504 167.498 29.1585 166.815 29.4001C166.132 29.6333 165.353 29.7499 164.479 29.7499ZM175.91 27.9759L179.495 15.9828H183.355L177.921 31.5363C177.804 31.8778 177.646 32.2443 177.446 32.6357C177.255 33.0271 176.992 33.3978 176.659 33.7476C176.334 34.1057 175.922 34.3972 175.422 34.6221C174.931 34.8469 174.327 34.9594 173.611 34.9594C173.269 34.9594 172.99 34.9385 172.774 34.8969C172.557 34.8553 172.299 34.797 171.999 34.722V32.086C172.091 32.086 172.187 32.086 172.287 32.086C172.387 32.0943 172.482 32.0985 172.574 32.0985C173.049 32.0985 173.436 32.0444 173.736 31.9361C174.036 31.8278 174.277 31.6613 174.46 31.4364C174.644 31.2198 174.789 30.9367 174.898 30.5869L175.91 27.9759ZM174.41 15.9828L177.346 25.7771L177.858 29.5874L175.41 29.8498L170.55 15.9828H174.41Z" fill="#E1E1E6"/>
</svg>
